<svg xmlns="http://www.w3.org/2000/svg" viewBox="0 0 133.95 116"><defs><style>.cls-1{fill:#d5d6d2;stroke:#324851;stroke-miterlimit:10;stroke-width:4px;}.cls-2{fill:#324851;}</style></defs><title>Asset 1</title><g id="Layer_2" data-name="Layer 2"><g id="Layer_1-2" data-name="Layer 1"><polygon class="cls-1" points="99.3 2 34.64 2 2.31 58 34.64 114 99.3 114 131.64 58 99.3 2"/><path class="cls-2" d="M28.05,80.33a29,29,0,0,0,14.7,4.15C51.14,84.48,56,80,56,73.64c0-5.94-3.39-9.33-12-12.63C33.71,57.34,27.3,52,27.3,43c0-9.89,8.2-17.24,20.54-17.24,6.5,0,11.21,1.51,14,3.11l-2.26,6.69a25.3,25.3,0,0,0-12.06-3c-8.67,0-12,5.18-12,9.52,0,5.94,3.86,8.86,12.63,12.25C59,58.47,64.42,63.66,64.42,73c0,9.8-7.26,18.28-22.24,18.28-6.12,0-12.81-1.79-16.21-4.05Z"/><path class="cls-2" d="M72.95,27.57a95,95,0,0,1,15.73-1.23c8.1,0,14,1.88,17.81,5.28,3.49,3,5.56,7.63,5.56,13.29s-1.7,10.27-4.9,13.57c-4.33,4.62-11.4,7-19.41,7a28.21,28.21,0,0,1-6.6-.57V90.32h-8.2Zm8.2,30.62a27.51,27.51,0,0,0,6.78.66c9.89,0,15.92-4.81,15.92-13.57,0-8.39-5.94-12.44-15-12.44a34.39,34.39,0,0,0-7.73.66Z"/></g></g></svg>